<?xml version="1.0" encoding="UTF-8" standalone="no"?>
<!-- Created with Inkscape (http://www.inkscape.org/) -->

<svg
   width="887.75024"
   height="159.85236"
   viewBox="0 0 234.88393 42.294271"
   version="1.1"
   id="svg1"
   xml:space="preserve"
   xmlns="http://www.w3.org/2000/svg"
   xmlns:svg="http://www.w3.org/2000/svg"><defs
     id="defs1" /><g
     id="layer1"
     transform="translate(-6.5788809,-198.07886)"><path
       style="fill:#12a9e3;fill-opacity:1"
       d="m 194.5915,240.01018 c -1.09244,-0.47583 -2.17666,-1.82143 -2.39184,-2.96844 -0.44619,-2.37839 1.47373,-4.87548 6.22033,-8.0903 1.53956,-1.04273 2.88668,-2.02274 2.99359,-2.1778 0.10692,-0.15505 0.19621,-0.73754 0.19844,-1.29441 l 0.004,-1.01248 -0.68934,0.81924 c -0.37914,0.45058 -1.22965,1.13587 -1.89002,1.52288 -2.24633,1.31643 -5.66868,0.78876 -7.15714,-1.10352 -0.28936,-0.36786 -0.59858,-0.66884 -0.68716,-0.66884 -0.0886,0 -0.58502,0.4693 -1.10322,1.04288 -1.29028,1.42818 -2.83775,2.13212 -4.68703,2.13212 -1.282,0 -1.62283,-0.11245 -2.39459,-0.79006 -1.1975,-1.05142 -1.62288,-2.60338 -1.39794,-5.10023 0.53051,-5.88863 0.52128,-6.6328 -0.0918,-7.40502 -1.12212,-1.41338 -3.27078,-0.68928 -4.73298,1.59501 -1.41228,2.20632 -3.47919,8.13629 -3.47919,9.98183 0,0.80041 -0.80791,1.45389 -1.79746,1.45389 -1.19686,0 -1.41393,-0.60115 -1.21356,-3.36075 l 0.16903,-2.32779 -0.72103,1.05833 c -1.18226,1.73533 -2.83593,3.30917 -4.22326,4.01941 -1.07127,0.54843 -1.57824,0.64773 -2.84065,0.55642 -1.72553,-0.12482 -2.66569,-0.76863 -3.30135,-2.26072 -0.20148,-0.47295 -0.40296,-0.8599 -0.44773,-0.8599 -0.0448,0 -0.63756,0.53289 -1.3173,1.18419 -1.71029,1.63875 -3.0205,2.25539 -4.79215,2.25539 -1.2464,0 -1.58915,-0.11642 -2.37564,-0.80697 -1.33112,-1.16874 -1.59724,-2.22635 -1.32322,-5.25859 0.39823,-4.40665 0.31404,-6.76225 -0.2645,-7.40093 -1.49581,-1.6513 -4.21198,0.30678 -5.65098,4.07378 -0.47671,1.24794 -0.99076,3.36547 -1.25248,5.15938 -0.49115,3.36651 -0.81378,3.96875 -2.12612,3.96875 -1.35109,0 -1.56771,-0.48255 -1.21926,-2.71592 1.39954,-8.9701 0.70071,-12.22519 -2.291,-10.67133 -0.8693,0.45151 -1.59442,1.40847 -2.63806,3.48151 -0.93127,1.84983 -2.3142,6.064 -2.58209,7.86833 -0.22952,1.54588 -0.67677,2.03741 -1.8539,2.03741 -1.34879,0 -1.50735,-0.52039 -1.18721,-3.89633 0.14867,-1.5678 0.27041,-3.41315 0.27053,-4.10077 l 2.2e-4,-1.25022 -0.7276,0.28945 c -0.40018,0.1592 -1.47943,0.31182 -2.39832,0.33915 l -1.67072,0.0497 -0.60021,1.70482 c -1.5624,4.43781 -3.78596,6.866 -6.2848,6.86321 -1.90213,-0.002 -3.25181,-1.59755 -3.96179,-4.68316 l -0.31681,-1.37686 -1.12347,1.91922 c -2.02812,3.46464 -4.08738,4.70227 -6.14556,3.69352 -1.47563,-0.72324 -2.39668,-2.74329 -2.76532,-6.06493 l -0.2924,-2.63469 -1.03977,0.51444 c -0.57188,0.28294 -1.606561,0.5689 -2.299301,0.63546 l -1.25952,0.12103 -0.31132,1.39112 c -0.6338,2.83211 -3.14095,5.61737 -5.73536,6.37159 -2.88539,0.8388 -5.55097,0.0705 -7.445592,-2.146 l -1.042904,-1.22009 -0.453133,0.69156 c -0.249224,0.38037 -1.164167,1.21501 -2.033208,1.85476 -2.818928,2.07518 -5.532047,2.1594 -7.659071,0.23776 -1.579591,-1.42706 -2.16626,-3.24634 -2.317422,-7.18637 -0.06863,-1.78883 -0.199535,-3.21242 -0.290902,-3.16352 -2.817098,1.50757 -5.810557,1.89737 -8.728203,1.13658 -0.925603,-0.24136 -1.733329,-0.38842 -1.794947,-0.3268 -0.06162,0.0616 0.180461,1.12136 0.537952,2.35498 0.9629,3.32277 1.310608,6.21926 1.14871,9.56901 -0.251344,5.2004 -1.969581,8.10196 -4.797794,8.10196 -1.430251,0 -2.211132,-0.4977 -2.865955,-1.82663 -0.887772,-1.80168 -0.762899,-5.5119 0.42362,-12.5865 0.511913,-3.05228 0.880801,-5.59955 0.819752,-5.6606 -0.06105,-0.0611 -0.61967,0.0756 -1.241378,0.30359 -3.214989,1.17914 -6.880641,1.42187 -12.50746,0.82819 -5.435487,-0.57349 -14.618987,-0.64392 -17.727082,-0.13595 -6.555852,1.07145 -11.73959,4.00177 -13.9357455,7.87775 -0.426175,0.75215 -0.941835,1.50612 -1.145912,1.67549 -0.504231,0.41847 -1.184345,0.24503 -1.620674,-0.41332 -0.567555,-0.85634 0.648288,-3.01534 3.058104,-5.43034 5.7615725,-5.77397 14.8108535,-7.57074 30.5775595,-6.0713 3.79922,0.36131 6.731515,0.51406 7.805208,0.40658 3.322038,-0.33254 7.275018,-1.63586 7.51453,-2.47758 0.06795,-0.23879 0.323188,-1.4462 0.5672,-2.68313 1.771839,-8.98169 4.660406,-13.22916 8.996716,-13.22916 2.631687,0 4.198934,1.87394 4.194995,5.01592 -0.0025,1.97654 -0.762125,3.92565 -2.399126,6.15569 -1.08849,1.48282 -4.492431,4.49838 -5.909733,5.23545 l -0.926041,0.48159 0.79375,0.32097 c 1.181891,0.47792 4.714356,0.6368 6.020426,0.27078 0.617828,-0.17314 1.682876,-0.72106 2.366774,-1.21759 0.996806,-0.72372 1.275428,-1.101 1.404663,-1.90207 1.305631,-8.09298 3.433432,-12.70224 6.545555,-14.17904 2.726741,-1.29393 4.94179,0.52767 4.955728,4.07545 0.01496,3.80883 -2.314361,9.30725 -5.294936,12.49882 -0.996194,1.06672 -2.245527,2.22761 -2.776297,2.57978 l -0.965034,0.64029 0.119113,2.26103 c 0.222211,4.21806 1.612925,5.92678 4.277659,5.25579 2.478667,-0.62413 4.63454,-3.35732 4.934561,-6.25597 0.363079,-3.50789 2.976994,-7.01372 5.869884,-7.87282 1.96653,-0.58399 3.51501,-0.48742 5.47422,0.34142 1.40537,0.59453 1.84244,0.93611 2.44369,1.90979 0.40272,0.65217 0.8386,1.7568 0.96862,2.45475 0.13003,0.69795 0.30146,1.33404 0.38096,1.41354 0.27977,0.27977 3.068281,-0.71051 3.847881,-1.3665 0.55461,-0.46667 0.84032,-0.99634 0.96213,-1.78366 0.32079,-2.07337 0.6495,-2.76886 1.46913,-3.10836 0.65415,-0.27096 0.88816,-0.25296 1.44371,0.11105 0.77637,0.5087 0.78637,0.64387 0.26614,3.59723 -0.8787,4.98843 -0.23061,9.78958 1.32147,9.78958 1.52312,0 4.12874,-5.36101 5.33249,-10.97153 0.3052,-1.42246 1.30839,-2.03309 2.28687,-1.39197 l 0.66742,0.43732 -0.14542,3.67337 c -0.098,2.47512 -0.0339,4.26456 0.19654,5.48568 0.74062,3.92516 2.7452,3.80603 4.63679,-0.27558 1.37415,-2.96508 1.3991,-3.3997 0.26705,-4.65273 -1.1147,-1.23384 -1.46634,-2.02984 -1.46634,-3.31938 0,-1.72718 1.09426,-2.99213 2.5971,-3.00221 1.94741,-0.0131 2.69458,1.11883 2.69458,4.08202 v 1.99751 h 1.06683 c 1.1979,0 2.56459,-0.49421 3.24314,-1.17277 0.31676,-0.31675 0.45253,-0.88706 0.45253,-1.90086 0,-1.18496 0.1181,-1.56643 0.64943,-2.09777 0.76379,-0.76379 1.12967,-0.8034 1.9719,-0.21348 0.58027,0.40643 0.61106,0.55419 0.45499,2.18281 -0.0921,0.96078 -0.23649,2.22311 -0.32091,2.8052 l -0.1535,1.05833 0.67165,-1.38993 c 1.34032,-2.77369 3.31447,-4.56616 5.46044,-4.95791 1.82247,-0.3327 3.67973,0.94592 4.268,2.93827 0.18848,0.63834 0.406,1.158 0.48337,1.1548 0.0774,-0.003 0.49786,-0.54131 0.93442,-1.19579 1.90494,-2.85585 5.44859,-3.82542 7.54234,-2.06364 1.73728,1.46182 2.15084,3.75683 1.50225,8.33671 -0.6613,4.66957 -0.0248,5.9513 2.38694,4.80684 2.28356,-1.08362 4.28318,-4.8536 5.13614,-9.6834 0.37233,-2.10827 0.75185,-3.51299 1.01019,-3.73902 0.75797,-0.66316 1.4964,-0.72923 2.15847,-0.19312 l 0.62778,0.50835 -0.47845,2.20975 c -0.92103,4.2538 -1.21415,6.19387 -1.2233,8.09674 -0.008,1.60461 0.0818,2.00925 0.54749,2.47495 0.42705,0.42705 0.7496,0.51816 1.38474,0.39113 2.0782,-0.41564 3.84908,-2.3349 5.8792,-6.37181 0.99721,-1.98294 1.22298,-2.71318 1.34974,-4.36563 0.22451,-2.92677 1.16703,-4.00828 2.64768,-3.03812 0.72996,0.47828 0.72754,0.41921 0.19459,4.75791 l -0.13,1.05834 0.73939,-1.33594 c 1.10643,-1.9991 1.92724,-2.97798 3.20903,-3.827 3.12056,-2.06698 6.40687,-0.81056 7.2047,2.7545 0.25977,1.1608 0.25959,2.03031 -8.8e-4,4.22814 -0.70035,5.9095 -0.35357,7.01634 1.95914,6.25308 1.8216,-0.60118 3.42337,-3.1265 3.65175,-5.75728 0.18019,-2.07553 1.3642,-4.67655 2.76773,-6.08008 1.45453,-1.45453 3.21104,-2.23952 5.32582,-2.38011 1.49512,-0.0994 1.94872,-0.0184 3.03818,0.54263 1.26048,0.64909 1.28863,0.65152 1.78594,0.15421 0.63434,-0.63434 1.61568,-0.64947 2.17312,-0.0335 0.38586,0.42637 0.39115,0.71276 0.055,2.97656 -0.49433,3.32899 -1.00615,8.20447 -0.87506,8.33556 0.0576,0.0576 0.84104,-0.59578 1.74089,-1.45204 3.80024,-3.61619 7.82898,-4.89206 16.47792,-5.21843 l 4.38222,-0.16537 -1.26614,-2.93704 c -0.69638,-1.61538 -1.26939,-3.08313 -1.27336,-3.26168 -0.004,-0.17854 0.0181,-0.67971 0.38302,-0.91883 0.6467,-0.42374 1.12946,-0.39237 5.10195,1.75927 3.63673,1.96978 5.89581,3.35341 9.1656,5.19412 2.42738,1.36649 2.61587,2.01529 0.10256,3.43977 -1.1791,0.66828 -9.03425,4.99325 -11.28849,6.06274 -1.55649,0.73845 -2.33103,0.80956 -2.62815,0.62214 -0.98711,-0.62265 -0.95431,-1.00912 0.32453,-3.82391 0.68723,-1.51264 1.31358,-2.89908 1.39188,-3.08098 0.18461,-0.42886 -7.01167,-0.46169 -9.78544,-0.0446 -5.04118,0.75797 -7.32528,1.89429 -10.73155,5.33884 l -2.59187,2.62101 -0.56364,3.24899 c -0.92479,5.33084 -2.16346,7.80845 -4.52763,9.05627 -1.33118,0.7026 -3.36949,0.80884 -4.66786,0.2433 z m 3.68689,-2.8262 c 0.38633,-0.30389 0.87936,-0.89469 1.09562,-1.31288 0.37032,-0.71613 1.44243,-4.76893 1.44646,-5.46791 0.002,-0.36085 -3.09249,1.68569 -4.45249,2.94459 -1.58598,1.46806 -2.04348,2.96531 -1.19319,3.90488 0.6055,0.66907 2.21087,0.63355 3.1036,-0.0687 z M 58.248105,233.61526 c 0.726317,-1.64196 1.043003,-4.89154 0.751391,-7.71018 -0.235635,-2.27756 -0.951166,-6.14742 -1.178726,-6.37498 -0.307818,-0.30782 -1.73212,8.64416 -1.909155,11.99937 -0.133686,2.53364 -0.0942,2.981 0.297706,3.37291 0.642756,0.64275 1.395254,0.16769 2.038784,-1.28712 z m 33.311384,-8.64489 c 0.96835,-0.48831 1.3351,-0.89992 2.04044,-2.29001 1.18644,-2.33827 1.14251,-2.79996 -0.33238,-3.49324 -2.11229,-0.99289 -3.49571,-3.39336 -2.81573,-4.88575 0.29027,-0.63707 0.27229,-0.66792 -0.28861,-0.49487 -1.74628,0.53876 -3.35054,2.02262 -4.11095,3.80244 -0.62878,1.47171 -0.58667,4.96017 0.0732,6.06312 1.08425,1.81232 3.34404,2.35223 5.43404,1.29831 z m 106.797941,-0.44806 c 1.21363,-0.55101 2.18863,-1.81424 2.87052,-3.71913 0.35904,-1.00299 1.42242,-5.32401 1.44073,-5.8544 0.003,-0.0912 -0.6135,-0.43224 -1.37032,-0.75781 -1.23725,-0.53225 -1.514,-0.56109 -2.74366,-0.28591 -2.83986,0.63554 -4.9256,3.50635 -4.96949,6.84 -0.0468,3.55466 1.88853,5.08648 4.77222,3.77725 z m 40.74436,-6.41312 c -0.008,-0.006 -11.71452,-6.42993 -11.71452,-6.42993 3.40744,6.48945 0.001,-0.002 3.41064,6.49039 -3.34827,5.87109 9.1e-4,6.2e-4 -3.347,5.86718 -0.003,0.006 11.65088,-5.92764 11.65088,-5.92764 z M 94.363769,215.95431 c -0.47118,-1.12768 -1.4128,-1.74936 -1.66282,-1.09782 -0.22242,0.57963 0.32115,1.52071 1.1812,2.04499 0.86468,0.5271 0.99254,0.27564 0.48162,-0.94717 z m -19.9758,-1.30269 c 1.265204,-1.30319 3.24493,-4.44181 4.014881,-6.36511 1.006365,-2.51386 1.646489,-5.9471 1.279794,-6.86406 -0.382941,-0.95757 -1.322587,-0.95984 -2.276933,-0.006 -1.387105,1.38711 -2.191044,3.54827 -3.14693,8.45963 -0.777381,3.9942 -1.021604,5.63493 -0.838761,5.63493 0.07321,0 0.508792,-0.38695 0.967949,-0.85989 z m 47.413461,-0.27848 c -0.1609,-0.9915 -0.88328,-1.40696 -0.88328,-0.508 0,0.47704 0.76661,1.76172 0.94489,1.58344 0.0534,-0.0534 0.0257,-0.53738 -0.0616,-1.07544 z m -59.891007,-3.07311 c 3.230126,-2.58386 4.809336,-5.07032 4.986402,-7.85108 0.08892,-1.39647 0.02204,-1.72006 -0.453857,-2.19596 -1.359483,-1.35948 -3.708211,-0.075 -5.066328,2.77066 -0.690437,1.44668 -1.61535,4.67448 -2.523074,8.80511 l -0.137245,0.62454 1.004564,-0.60269 c 0.55251,-0.33148 1.537803,-1.02924 2.189538,-1.55058 z m 99.738787,-2.62645 c -1.25309,-1.01469 -0.42138,-3.18123 1.39053,-3.62223 0.55504,-0.13509 0.86473,-0.0234 1.38906,0.50092 0.8997,0.89969 0.86591,1.87132 -0.0986,2.83585 -0.89119,0.89118 -1.81187,0.98921 -2.68097,0.28546 z"
       id="path1" /></g></svg>
